# Blender v2.91.0 OBJ File: 'tabel.blend'
# www.blender.org
mtllib tabel.mtl
o Cube_Cube.001
v -2.080549 0.002104 2.026223
v -2.080549 0.002104 -2.097499
v 2.053685 0.002104 2.026223
v 2.053685 0.002104 -2.097499
v 1.537376 0.002104 -2.097499
v -1.540788 0.002104 -2.097499
v -1.540788 2.002104 -2.097499
v 1.537376 2.002104 -2.097499
v -1.540788 0.002104 2.026223
v 1.537376 0.002104 2.026223
v 1.537376 2.002104 2.026223
v -1.540788 2.002104 2.026223
v -2.080549 0.002104 -1.645444
v -2.080549 2.002104 -1.645444
v 2.053685 0.002104 -1.645444
v 2.053685 2.002104 -1.645444
v 1.537376 2.002104 -1.645444
v -1.540788 2.002104 -1.645444
v -1.540788 0.002104 -1.645444
v 1.537376 0.002104 -1.645444
v -2.080549 0.002104 1.564555
v 2.053685 2.002104 1.564555
v 1.537376 2.002104 1.564555
v -1.540788 2.002104 1.564555
v -1.540788 0.002104 1.564555
v 1.537376 0.002104 1.564555
v -2.080549 2.002104 1.564555
v 2.053685 0.002104 1.564555
v -2.080549 1.582633 2.026223
v -2.080549 1.582633 -2.097499
v 2.053685 1.582633 -2.097499
v 2.053685 1.582633 2.026223
v 1.537376 1.582633 2.026223
v -1.540788 1.582633 2.026223
v -1.540788 1.582633 -2.097499
v 1.537376 1.582633 -2.097499
v 2.053685 1.582633 -1.645444
v -2.080549 1.582633 -1.645444
v -2.080549 1.582633 1.564555
v 2.053685 1.582633 1.564555
v -2.447034 2.033899 2.391254
v -2.447034 2.033899 -2.461801
v 2.418392 2.033899 2.391254
v 2.418392 2.033899 -2.461801
v -1.811809 2.033899 -2.461801
v 1.810767 2.033899 -2.461801
v 1.810767 2.033899 2.391254
v -1.811809 2.033899 2.391254
v -2.447034 2.033899 -1.929795
v 2.418392 2.033899 -1.929795
v 1.810767 2.033899 -1.929795
v -1.811809 2.033899 -1.929795
v 2.418392 2.033899 1.847934
v 1.810767 2.033899 1.847934
v -1.811809 2.033899 1.847934
v -2.447034 2.033899 1.847934
v -2.447034 1.540240 2.391254
v -2.447034 1.540240 -2.461801
v 2.418392 1.540240 -2.461801
v 2.418392 1.540240 2.391254
v 1.810767 1.540240 2.391254
v -1.811809 1.540240 2.391254
v -1.811809 1.540240 -2.461801
v 1.810767 1.540240 -2.461801
v 2.418392 1.540240 -1.929795
v -2.447034 1.540240 -1.929795
v -2.447034 1.540240 1.847934
v 2.418392 1.540240 1.847934
v -2.447034 2.033899 -1.929795
v -2.447034 2.033899 -2.461801
v 1.810767 2.033899 -2.461801
v 2.418392 2.033899 -2.461801
v 2.418392 2.033899 1.847934
v 2.418392 2.033899 2.391254
v -1.811809 2.033899 2.391254
v -2.447034 2.033899 2.391254
v -1.811809 2.033899 -2.461801
v 1.810767 2.033899 2.391254
v -2.447034 2.033899 1.847934
v 2.418392 2.033899 -1.929795
v 2.418392 1.540240 -1.929795
v 2.418392 1.540240 1.847934
v -2.447034 1.540240 2.391254
v -2.447034 1.540240 1.847934
v -2.447034 1.540240 -1.929795
v 2.418392 1.540240 -2.461801
v -1.811809 1.540240 -2.461801
v 1.810767 1.540240 -2.461801
v -2.447034 1.540240 -2.461801
v 1.810767 1.540240 2.391254
v -1.811809 1.540240 2.391254
v 2.418392 1.540240 2.391254
v -2.080549 0.002104 1.564555
v -2.080549 0.002104 1.564555
v -2.080549 0.002104 2.026223
v -2.080549 0.002104 2.026223
v -2.080549 0.002104 -2.097499
v -2.080549 0.002104 -2.097499
v -1.540788 0.002104 -2.097499
v -1.540788 0.002104 -2.097499
v 2.053685 0.002104 -2.097499
v 2.053685 0.002104 -2.097499
v 2.053685 0.002104 -1.645444
v 2.053685 0.002104 -1.645444
v 2.053685 0.002104 2.026223
v 2.053685 0.002104 2.026223
v 1.537376 0.002104 2.026223
v 1.537376 0.002104 2.026223
v 1.537376 0.002104 -2.097499
v 1.537376 0.002104 -2.097499
v 1.537376 2.002104 -1.645444
v 1.537376 0.002104 -1.645444
v 1.537376 0.002104 -1.645444
v -1.540788 0.002104 2.026223
v -1.540788 0.002104 2.026223
v -1.540788 0.002104 1.564555
v -1.540788 0.002104 1.564555
v 1.537376 0.002104 1.564555
v 1.537376 0.002104 1.564555
v 1.537376 1.582633 2.026223
v -1.540788 1.582633 2.026223
v -2.080549 0.002104 -1.645444
v -2.080549 0.002104 -1.645444
v -1.540788 0.002104 -1.645444
v -1.540788 0.002104 -1.645444
v -1.540788 2.002104 -1.645444
v -1.540788 2.002104 1.564555
v 2.053685 0.002104 1.564555
v 2.053685 0.002104 1.564555
v -2.080549 1.582633 1.564555
v 1.537376 2.002104 1.564555
vt 0.105159 0.052319
vt 0.114978 0.184927
vt 0.100490 0.180283
vt 0.929778 0.109729
vt 0.923733 0.052772
vt 0.939962 0.058909
vt 0.000000 0.000000
vt 0.000000 0.000000
vt 0.000000 0.000000
vt 0.690361 0.752468
vt 0.631377 0.809807
vt 0.637635 0.767058
vt 0.635206 0.193145
vt 0.672062 0.162062
vt 0.683670 0.206457
vt 0.000000 0.000000
vt 0.000000 0.000000
vt 0.000000 0.000000
vt 0.000000 0.000000
vt 0.000000 0.000000
vt 0.000000 0.000000
vt 0.000000 0.000000
vt 0.000000 0.000000
vt 0.000000 0.000000
vt 0.500227 0.670541
vt 0.553910 0.681271
vt 0.515289 0.709457
vt 0.530452 0.341066
vt 0.539719 0.278407
vt 0.572003 0.325954
vt 0.370578 0.640174
vt 0.257165 0.517200
vt 0.364657 0.518497
vt 0.999892 0.149238
vt 0.925361 0.099284
vt 0.988902 0.074340
vt 1.771006 -0.234121
vt 2.077257 -0.297219
vt 1.979037 -0.119286
vt 0.141905 0.143097
vt 0.025068 0.042044
vt 0.140006 0.045359
vt 0.181364 0.860412
vt 0.032968 0.148609
vt 0.140641 0.142501
vt 0.251984 0.636765
vt 0.132424 0.515149
vt 0.145734 0.335516
vt 0.121872 0.637796
vt 0.104858 0.337835
vt 0.533304 0.658304
vt 0.583517 0.634657
vt 0.540885 0.621496
vt 0.978698 0.840655
vt 0.858932 0.151681
vt 0.950714 0.143800
vt 0.862797 0.050163
vt 0.949124 0.045997
vt 0.982095 0.945084
vt 0.980374 0.949903
vt 0.517189 0.298942
vt 0.499740 0.252275
vt 0.209727 0.683899
vt 0.211574 0.723587
vt 0.925540 0.131976
vt 0.843408 0.083079
vt 0.892185 0.842934
vt 0.900535 0.950437
vt 0.867420 0.984747
vt 0.983023 0.071975
vt 0.983922 0.983580
vt 0.129991 0.176002
vt 0.902295 0.089359
vt 0.000000 0.000000
vt 0.683348 0.796417
vt 0.622789 0.148246
vt 0.000000 0.000000
vt 0.000000 0.000000
vt 0.000000 0.000000
vt 1.899309 -0.338533
vt 0.031162 0.145310
vt 0.073691 0.866519
vt 0.134130 0.637488
vt 0.162749 0.635478
vt 0.860459 0.150168
vt 0.484899 0.294383
vt 0.871932 0.175602
vt 0.186125 0.982407
vt 0.865854 0.072962
vt 0.631377 0.809807
vt 0.798791 0.919923
vt 0.759724 0.954561
vt 0.553910 0.681271
vt 0.583517 0.634657
vt 0.583517 0.634657
vt 0.929778 0.109729
vt 0.939962 0.058909
vt 0.843408 0.083079
vt 0.925361 0.099284
vt 0.988902 0.074340
vt 0.925361 0.099284
vt 0.843408 0.083079
vt 0.843408 0.083079
vt 0.515289 0.709457
vt 0.553910 0.681271
vt 0.344035 0.346193
vt 0.300109 0.358364
vt 0.300109 0.358364
vt 0.931505 0.000108
vt 0.999892 0.012204
vt 0.988902 0.074340
vt 0.105159 0.052319
vt 0.054239 0.289120
vt 0.000108 0.262000
vt 0.539719 0.278407
vt 0.572003 0.325954
vt 0.539719 0.278407
vt 0.499740 0.252275
vt 0.499740 0.252275
vt 0.100490 0.180283
vt 0.114978 0.184927
vt 0.106081 0.270169
vt 0.384150 0.340775
vt 0.344035 0.346193
vt 0.939962 0.058909
vt 0.923733 0.052772
vt 0.672062 0.162062
vt 0.764047 0.000108
vt 0.807826 0.046622
vt 0.622789 0.148246
vt 0.635206 0.193145
vt 0.807826 0.046622
vt 0.683670 0.206457
vt 0.672062 0.162062
vt 0.690361 0.752468
vt 0.637635 0.767058
vt 0.836162 0.881805
vt 0.683348 0.796417
vt 0.690361 0.752468
vt 0.309006 0.273122
vt 0.324019 0.264197
vt 0.988902 0.074340
vt 0.923733 0.052772
vt 0.902295 0.089359
vt 0.384150 0.340775
vt 0.324019 0.264197
vt 0.299187 0.140513
vt 0.572003 0.325954
vt 0.635206 0.193145
vt 0.683670 0.206457
vt 0.515289 0.709457
vt 0.637635 0.767058
vt 0.631377 0.809807
vt 0.683348 0.796417
vt 0.836379 0.009153
vt 0.931505 0.000108
vt 0.902295 0.089359
vt 0.929778 0.109729
vt 0.100490 0.180283
vt 0.092069 0.304541
vt 0.054239 0.289120
vt 0.622789 0.148246
vt 0.836162 0.081090
vt 0.798791 0.919923
vn 0.0000 -1.0000 0.0000
vn 0.1149 -0.9934 0.0000
vn 0.0000 -0.9933 0.1156
vn -0.1155 -0.9933 0.0000
vn 0.0000 -0.9933 -0.1154
vn -1.0000 0.0000 0.0000
vn 0.0000 0.0000 -1.0000
vn 1.0000 0.0000 0.0000
vn 0.0000 0.0000 1.0000
vn 0.0000 1.0000 0.0000
usemtl Material.001
s off
f 129/1/1 107/2/1 118/3/1
f 116/4/1 95/5/1 93/6/1
f 38/7/2 84/8/2 85/9/2
f 99/10/1 122/11/1 98/12/1
f 102/13/1 113/14/1 109/15/1
f 36/16/3 87/17/3 88/18/3
f 37/19/4 82/20/4 40/21/4
f 33/22/5 91/23/5 34/24/5
f 69/25/6 58/26/6 66/27/6
f 71/28/7 59/29/7 64/30/7
f 73/31/8 60/32/8 68/33/8
f 75/34/9 57/35/9 62/36/9
f 56/37/10 48/38/10 55/39/10
f 54/40/10 43/41/10 53/42/10
f 55/43/10 78/44/10 54/45/10
f 74/46/9 61/47/9 60/32/9
f 47/48/9 62/49/9 61/50/9
f 70/51/7 63/52/7 58/26/7
f 77/53/7 64/30/7 63/52/7
f 45/54/10 51/55/10 46/56/10
f 46/56/10 80/57/10 44/58/10
f 42/59/10 52/60/10 45/54/10
f 72/61/8 65/62/8 59/29/8
f 79/63/6 66/27/6 67/64/6
f 76/65/6 67/66/6 57/35/6
f 52/67/10 54/45/10 51/55/10
f 51/55/10 53/42/10 80/57/10
f 49/68/10 55/43/10 52/67/10
f 50/69/8 68/70/8 65/71/8
f 129/1/1 106/72/1 107/2/1
f 116/4/1 114/73/1 95/5/1
f 38/7/2 130/74/2 84/8/2
f 99/10/1 124/75/1 122/11/1
f 102/13/1 103/76/1 113/14/1
f 36/16/3 35/77/3 87/17/3
f 37/19/4 81/78/4 82/20/4
f 33/22/5 90/79/5 91/23/5
f 69/25/6 70/51/6 58/26/6
f 71/28/7 72/61/7 59/29/7
f 73/31/8 74/46/8 60/32/8
f 75/34/9 76/65/9 57/35/9
f 56/37/10 41/80/10 48/38/10
f 54/40/10 78/81/10 43/41/10
f 55/43/10 48/82/10 78/44/10
f 74/46/9 47/83/9 61/47/9
f 47/48/9 75/84/9 62/49/9
f 70/51/7 77/53/7 63/52/7
f 77/53/7 71/28/7 64/30/7
f 45/54/10 52/67/10 51/55/10
f 46/56/10 51/85/10 80/57/10
f 42/59/10 49/68/10 52/60/10
f 72/61/8 50/86/8 65/62/8
f 79/63/6 69/25/6 66/27/6
f 76/65/6 79/87/6 67/66/6
f 52/67/10 55/43/10 54/45/10
f 51/55/10 54/45/10 53/42/10
f 49/68/10 56/88/10 55/43/10
f 50/69/8 73/89/8 68/70/8
usemtl Material.002
f 123/90/9 18/91/9 14/92/9
f 30/93/3 87/94/3 35/95/3
f 117/96/7 94/97/7 39/98/7
f 29/99/5 91/100/5 83/101/5
f 29/99/2 84/102/2 130/103/2
f 30/93/2 85/104/2 89/105/2
f 32/106/5 90/107/5 33/108/5
f 127/109/8 12/110/8 121/111/8
f 128/112/7 23/113/7 22/114/7
f 31/115/3 88/116/3 86/117/3
f 31/115/4 81/118/4 37/119/4
f 26/120/6 108/121/6 120/122/6
f 32/106/4 82/123/4 92/124/4
f 29/99/6 21/125/6 96/126/6
f 112/127/9 16/128/9 111/129/9
f 31/115/8 104/130/8 101/131/8
f 17/132/6 110/133/6 20/134/6
f 30/93/7 100/135/7 97/136/7
f 7/137/8 19/138/8 6/139/8
f 32/106/9 10/140/9 105/141/9
f 34/142/9 1/143/9 9/144/9
f 40/145/8 3/146/8 28/147/8
f 36/148/7 4/149/7 5/150/7
f 38/151/6 2/152/6 13/153/6
f 123/90/9 125/154/9 18/91/9
f 30/93/3 89/105/3 87/94/3
f 27/155/7 24/156/7 39/98/7
f 24/156/7 117/96/7 39/98/7
f 29/99/5 34/142/5 91/100/5
f 29/99/2 83/101/2 84/102/2
f 30/93/2 38/151/2 85/104/2
f 32/106/5 92/124/5 90/107/5
f 115/157/8 25/158/8 121/111/8
f 25/158/8 127/109/8 121/111/8
f 128/112/7 119/159/7 23/113/7
f 31/115/3 36/148/3 88/116/3
f 31/115/4 86/117/4 81/118/4
f 11/160/6 131/161/6 120/122/6
f 131/161/6 26/120/6 120/122/6
f 32/106/4 40/145/4 82/123/4
f 29/99/6 130/103/6 21/125/6
f 112/127/9 15/162/9 16/128/9
f 31/115/8 37/119/8 104/130/8
f 17/132/6 8/163/6 110/133/6
f 30/93/7 35/95/7 100/135/7
f 7/137/8 126/164/8 19/138/8
f 32/106/9 33/108/9 10/140/9
f 34/142/9 29/99/9 1/143/9
f 40/145/8 32/106/8 3/146/8
f 36/148/7 31/115/7 4/149/7
f 38/151/6 30/93/6 2/152/6
